<?xml version="1.0" encoding="utf-8" standalone="no"?>
<!DOCTYPE svg PUBLIC "-//W3C//DTD SVG 1.1//EN"
  "http://www.w3.org/Graphics/SVG/1.1/DTD/svg11.dtd">
<!-- Created with matplotlib (https://matplotlib.org/) -->
<svg height="345.6pt" version="1.1" viewBox="0 0 460.8 345.6" width="460.8pt" xmlns="http://www.w3.org/2000/svg" xmlns:xlink="http://www.w3.org/1999/xlink">
 <defs>
  <style type="text/css">
*{stroke-linecap:butt;stroke-linejoin:round;}
  </style>
 </defs>
 <g id="figure_1">
  <g id="patch_1">
   <path d="M 0 345.6 
L 460.8 345.6 
L 460.8 0 
L 0 0 
z
" style="fill:#ffffff;"/>
  </g>
  <g id="axes_1">
   <g id="patch_2">
    <path d="M 38.27 303.64 
L 450 303.64 
L 450 10.8 
L 38.27 10.8 
z
" style="fill:#ffffff;"/>
   </g>
   <g id="PolyCollection_1">
    <path clip-path="url(#pd8ae0c392d)" d="M 56.985 24.110909 
L 56.985 290.329091 
L 58.865905 290.329091 
L 60.746809 290.329091 
L 62.627714 290.329091 
L 64.508618 290.329091 
L 66.389523 290.329091 
L 68.270427 290.329091 
L 70.151332 290.329091 
L 72.032236 290.329091 
L 73.913141 290.329091 
L 75.794045 290.329091 
L 77.67495 290.329091 
L 79.555854 290.329091 
L 81.436759 290.329091 
L 83.317663 290.329091 
L 85.198568 290.329091 
L 87.079472 290.329091 
L 88.960377 290.329091 
L 90.841281 290.329091 
L 92.722186 290.329091 
L 94.60309 290.329091 
L 96.483995 290.329091 
L 98.364899 290.329091 
L 100.245804 290.329091 
L 102.126709 290.329091 
L 104.007613 290.329091 
L 105.888518 290.329091 
L 107.769422 290.329091 
L 109.650327 290.329091 
L 111.531231 290.329091 
L 113.412136 290.329091 
L 115.29304 290.329091 
L 117.173945 290.329091 
L 119.054849 290.329091 
L 120.935754 290.329091 
L 122.816658 290.329091 
L 124.697563 290.329091 
L 126.578467 290.329091 
L 128.459372 290.329091 
L 130.340276 290.329091 
L 132.221181 290.329091 
L 134.102085 290.329091 
L 135.98299 290.329091 
L 137.863894 290.329091 
L 139.744799 290.329091 
L 141.625704 290.329091 
L 143.506608 290.329091 
L 145.387513 290.329091 
L 147.268417 290.329091 
L 149.149322 290.329091 
L 151.030226 290.329091 
L 152.911131 290.329091 
L 154.792035 290.329091 
L 156.67294 290.329091 
L 158.553844 290.329091 
L 160.434749 290.329091 
L 162.315653 290.329091 
L 164.196558 290.329091 
L 166.077462 290.329091 
L 167.958367 290.329091 
L 169.839271 290.329091 
L 171.720176 290.329091 
L 173.60108 290.329091 
L 175.481985 290.329091 
L 177.362889 290.329091 
L 179.243794 290.329091 
L 181.124698 290.329091 
L 183.005603 290.329091 
L 184.886508 290.329091 
L 186.767412 290.329091 
L 188.648317 290.329091 
L 190.529221 290.329091 
L 192.410126 290.329091 
L 194.29103 290.329091 
L 196.171935 290.329091 
L 198.052839 290.329091 
L 199.933744 290.329091 
L 201.814648 290.329091 
L 203.695553 290.329091 
L 205.576457 290.329091 
L 207.457362 290.329091 
L 209.338266 290.329091 
L 211.219171 290.329091 
L 213.100075 290.329091 
L 214.98098 290.329091 
L 216.861884 290.329091 
L 218.742789 290.329091 
L 220.623693 290.329091 
L 222.504598 290.329091 
L 224.385503 290.329091 
L 226.266407 290.329091 
L 228.147312 290.329091 
L 230.028216 290.329091 
L 231.909121 290.329091 
L 233.790025 290.329091 
L 235.67093 290.329091 
L 237.551834 290.329091 
L 239.432739 290.329091 
L 241.313643 290.329091 
L 243.194548 290.329091 
L 245.075452 290.329091 
L 246.956357 290.329091 
L 248.837261 290.329091 
L 250.718166 290.329091 
L 252.59907 290.329091 
L 254.479975 290.329091 
L 256.360879 290.329091 
L 258.241784 290.329091 
L 260.122688 290.329091 
L 262.003593 290.329091 
L 263.884497 290.329091 
L 265.765402 290.329091 
L 267.646307 290.329091 
L 269.527211 290.329091 
L 271.408116 290.329091 
L 273.28902 290.329091 
L 275.169925 290.329091 
L 277.050829 290.329091 
L 278.931734 290.329091 
L 280.812638 290.329091 
L 282.693543 290.329091 
L 284.574447 290.329091 
L 286.455352 290.329091 
L 288.336256 290.329091 
L 290.217161 290.329091 
L 292.098065 290.329091 
L 293.97897 290.329091 
L 295.859874 290.329091 
L 297.740779 290.329091 
L 299.621683 290.329091 
L 301.502588 290.329091 
L 303.383492 290.329091 
L 305.264397 290.329091 
L 307.145302 290.329091 
L 309.026206 290.329091 
L 310.907111 290.329091 
L 312.788015 290.329091 
L 314.66892 290.329091 
L 316.549824 290.329091 
L 318.430729 290.329091 
L 320.311633 290.329091 
L 322.192538 290.329091 
L 324.073442 290.329091 
L 325.954347 290.329091 
L 327.835251 290.329091 
L 329.716156 290.329091 
L 331.59706 290.329091 
L 333.477965 290.329091 
L 335.358869 290.329091 
L 337.239774 290.329091 
L 339.120678 290.329091 
L 341.001583 290.329091 
L 342.882487 290.329091 
L 344.763392 290.329091 
L 346.644296 290.329091 
L 348.525201 290.329091 
L 350.406106 290.329091 
L 352.28701 290.329091 
L 354.167915 290.329091 
L 356.048819 290.329091 
L 357.929724 290.329091 
L 359.810628 290.329091 
L 361.691533 290.329091 
L 363.572437 290.329091 
L 365.453342 290.329091 
L 367.334246 290.329091 
L 369.215151 290.329091 
L 371.096055 290.329091 
L 372.97696 290.329091 
L 374.857864 290.329091 
L 376.738769 290.329091 
L 378.619673 290.329091 
L 380.500578 290.329091 
L 382.381482 290.329091 
L 384.262387 290.329091 
L 386.143291 290.329091 
L 388.024196 290.329091 
L 389.905101 290.329091 
L 391.786005 290.329091 
L 393.66691 290.329091 
L 395.547814 290.329091 
L 397.428719 290.329091 
L 399.309623 290.329091 
L 401.190528 290.329091 
L 403.071432 290.329091 
L 404.952337 290.329091 
L 406.833241 290.329091 
L 408.714146 290.329091 
L 410.59505 290.329091 
L 412.475955 290.329091 
L 414.356859 290.329091 
L 416.237764 290.329091 
L 418.118668 290.329091 
L 419.999573 290.329091 
L 421.880477 290.329091 
L 423.761382 290.329091 
L 425.642286 290.329091 
L 427.523191 290.329091 
L 429.404095 290.329091 
L 431.285 290.329091 
L 431.285 29.408651 
L 431.285 29.408651 
L 429.404095 34.653149 
L 427.523191 39.844404 
L 425.642286 44.982415 
L 423.761382 50.067182 
L 421.880477 55.098705 
L 419.999573 60.076985 
L 418.118668 65.002022 
L 416.237764 69.873815 
L 414.356859 74.692364 
L 412.475955 79.457669 
L 410.59505 84.169731 
L 408.714146 88.828549 
L 406.833241 93.434124 
L 404.952337 97.986455 
L 403.071432 102.485542 
L 401.190528 106.931385 
L 399.309623 111.323985 
L 397.428719 115.663342 
L 395.547814 119.949455 
L 393.66691 124.182324 
L 391.786005 128.361949 
L 389.905101 132.488331 
L 388.024196 136.561469 
L 386.143291 140.581364 
L 384.262387 144.548015 
L 382.381482 148.461422 
L 380.500578 152.321585 
L 378.619673 156.128505 
L 376.738769 159.882182 
L 374.857864 163.582615 
L 372.97696 167.229804 
L 371.096055 170.823749 
L 369.215151 174.364451 
L 367.334246 177.851909 
L 365.453342 181.286124 
L 363.572437 184.667095 
L 361.691533 187.994822 
L 359.810628 191.269305 
L 357.929724 194.490545 
L 356.048819 197.658542 
L 354.167915 200.773295 
L 352.28701 203.834804 
L 350.406106 206.843069 
L 348.525201 209.798091 
L 346.644296 212.699869 
L 344.763392 215.548404 
L 342.882487 218.343695 
L 341.001583 221.085742 
L 339.120678 223.774545 
L 337.239774 226.410105 
L 335.358869 228.992422 
L 333.477965 231.521495 
L 331.59706 233.997324 
L 329.716156 236.419909 
L 327.835251 238.789251 
L 325.954347 241.105349 
L 324.073442 243.368204 
L 322.192538 245.577815 
L 320.311633 247.734182 
L 318.430729 249.837305 
L 316.549824 251.887185 
L 314.66892 253.883822 
L 312.788015 255.827215 
L 310.907111 257.717364 
L 309.026206 259.554269 
L 307.145302 261.337931 
L 305.264397 263.068349 
L 303.383492 264.745524 
L 301.502588 266.369455 
L 299.621683 267.940142 
L 297.740779 269.457585 
L 295.859874 270.921785 
L 293.97897 272.332742 
L 292.098065 273.690455 
L 290.217161 274.994924 
L 288.336256 276.246149 
L 286.455352 277.444131 
L 284.574447 278.588869 
L 282.693543 279.680364 
L 280.812638 280.718615 
L 278.931734 281.703622 
L 277.050829 282.635385 
L 275.169925 283.513905 
L 273.28902 284.339182 
L 271.408116 285.111215 
L 269.527211 285.830004 
L 267.646307 286.495549 
L 265.765402 287.107851 
L 263.884497 287.666909 
L 262.003593 288.172724 
L 260.122688 288.625295 
L 258.241784 289.024622 
L 256.360879 289.370705 
L 254.479975 289.663545 
L 252.59907 289.903142 
L 250.718166 290.089495 
L 248.837261 290.222604 
L 246.956357 290.302469 
L 245.075452 290.329091 
L 243.194548 290.302469 
L 241.313643 290.222604 
L 239.432739 290.089495 
L 237.551834 289.903142 
L 235.67093 289.663545 
L 233.790025 289.370705 
L 231.909121 289.024622 
L 230.028216 288.625295 
L 228.147312 288.172724 
L 226.266407 287.666909 
L 224.385503 287.107851 
L 222.504598 286.495549 
L 220.623693 285.830004 
L 218.742789 285.111215 
L 216.861884 284.339182 
L 214.98098 283.513905 
L 213.100075 282.635385 
L 211.219171 281.703622 
L 209.338266 280.718615 
L 207.457362 279.680364 
L 205.576457 278.588869 
L 203.695553 277.444131 
L 201.814648 276.246149 
L 199.933744 274.994924 
L 198.052839 273.690455 
L 196.171935 272.332742 
L 194.29103 270.921785 
L 192.410126 269.457585 
L 190.529221 267.940142 
L 188.648317 266.369455 
L 186.767412 264.745524 
L 184.886508 263.068349 
L 183.005603 261.337931 
L 181.124698 259.554269 
L 179.243794 257.717364 
L 177.362889 255.827215 
L 175.481985 253.883822 
L 173.60108 251.887185 
L 171.720176 249.837305 
L 169.839271 247.734182 
L 167.958367 245.577815 
L 166.077462 243.368204 
L 164.196558 241.105349 
L 162.315653 238.789251 
L 160.434749 236.419909 
L 158.553844 233.997324 
L 156.67294 231.521495 
L 154.792035 228.992422 
L 152.911131 226.410105 
L 151.030226 223.774545 
L 149.149322 221.085742 
L 147.268417 218.343695 
L 145.387513 215.548404 
L 143.506608 212.699869 
L 141.625704 209.798091 
L 139.744799 206.843069 
L 137.863894 203.834804 
L 135.98299 200.773295 
L 134.102085 197.658542 
L 132.221181 194.490545 
L 130.340276 191.269305 
L 128.459372 187.994822 
L 126.578467 184.667095 
L 124.697563 181.286124 
L 122.816658 177.851909 
L 120.935754 174.364451 
L 119.054849 170.823749 
L 117.173945 167.229804 
L 115.29304 163.582615 
L 113.412136 159.882182 
L 111.531231 156.128505 
L 109.650327 152.321585 
L 107.769422 148.461422 
L 105.888518 144.548015 
L 104.007613 140.581364 
L 102.126709 136.561469 
L 100.245804 132.488331 
L 98.364899 128.361949 
L 96.483995 124.182324 
L 94.60309 119.949455 
L 92.722186 115.663342 
L 90.841281 111.323985 
L 88.960377 106.931385 
L 87.079472 102.485542 
L 85.198568 97.986455 
L 83.317663 93.434124 
L 81.436759 88.828549 
L 79.555854 84.169731 
L 77.67495 79.457669 
L 75.794045 74.692364 
L 73.913141 69.873815 
L 72.032236 65.002022 
L 70.151332 60.076985 
L 68.270427 55.098705 
L 66.389523 50.067182 
L 64.508618 44.982415 
L 62.627714 39.844404 
L 60.746809 34.653149 
L 58.865905 29.408651 
L 56.985 24.110909 
z
" style="fill:#1f77b4;fill-opacity:0.5;"/>
   </g>
   <g id="matplotlib.axis_1">
    <g id="xtick_1">
     <g id="line2d_1">
      <defs>
       <path d="M 0 0 
L 0 3.5 
" id="m9f2649e4ef" style="stroke:#000000;stroke-width:0.8;"/>
      </defs>
      <g>
       <use style="stroke:#000000;stroke-width:0.8;" x="56.985" xlink:href="#m9f2649e4ef" y="303.64"/>
      </g>
     </g>
     <g id="text_1">
      <!-- −2.0 -->
      <defs>
       <path d="M 10.59375 35.5 
L 73.1875 35.5 
L 73.1875 27.203125 
L 10.59375 27.203125 
z
" id="DejaVuSans-8722"/>
       <path d="M 19.1875 8.296875 
L 53.609375 8.296875 
L 53.609375 0 
L 7.328125 0 
L 7.328125 8.296875 
Q 12.9375 14.109375 22.625 23.890625 
Q 32.328125 33.6875 34.8125 36.53125 
Q 39.546875 41.84375 41.421875 45.53125 
Q 43.3125 49.21875 43.3125 52.78125 
Q 43.3125 58.59375 39.234375 62.25 
Q 35.15625 65.921875 28.609375 65.921875 
Q 23.96875 65.921875 18.8125 64.3125 
Q 13.671875 62.703125 7.8125 59.421875 
L 7.8125 69.390625 
Q 13.765625 71.78125 18.9375 73 
Q 24.125 74.21875 28.421875 74.21875 
Q 39.75 74.21875 46.484375 68.546875 
Q 53.21875 62.890625 53.21875 53.421875 
Q 53.21875 48.921875 51.53125 44.890625 
Q 49.859375 40.875 45.40625 35.40625 
Q 44.1875 33.984375 37.640625 27.21875 
Q 31.109375 20.453125 19.1875 8.296875 
z
" id="DejaVuSans-50"/>
       <path d="M 10.6875 12.40625 
L 21 12.40625 
L 21 0 
L 10.6875 0 
z
" id="DejaVuSans-46"/>
       <path d="M 31.78125 66.40625 
Q 24.171875 66.40625 20.328125 58.90625 
Q 16.5 51.421875 16.5 36.375 
Q 16.5 21.390625 20.328125 13.890625 
Q 24.171875 6.390625 31.78125 6.390625 
Q 39.453125 6.390625 43.28125 13.890625 
Q 47.125 21.390625 47.125 36.375 
Q 47.125 51.421875 43.28125 58.90625 
Q 39.453125 66.40625 31.78125 66.40625 
z
M 31.78125 74.21875 
Q 44.046875 74.21875 50.515625 64.515625 
Q 56.984375 54.828125 56.984375 36.375 
Q 56.984375 17.96875 50.515625 8.265625 
Q 44.046875 -1.421875 31.78125 -1.421875 
Q 19.53125 -1.421875 13.0625 8.265625 
Q 6.59375 17.96875 6.59375 36.375 
Q 6.59375 54.828125 13.0625 64.515625 
Q 19.53125 74.21875 31.78125 74.21875 
z
" id="DejaVuSans-48"/>
      </defs>
      <g transform="translate(44.843594 318.238437)scale(0.1 -0.1)">
       <use xlink:href="#DejaVuSans-8722"/>
       <use x="83.789062" xlink:href="#DejaVuSans-50"/>
       <use x="147.412109" xlink:href="#DejaVuSans-46"/>
       <use x="179.199219" xlink:href="#DejaVuSans-48"/>
      </g>
     </g>
    </g>
    <g id="xtick_2">
     <g id="line2d_2">
      <g>
       <use style="stroke:#000000;stroke-width:0.8;" x="104.007613" xlink:href="#m9f2649e4ef" y="303.64"/>
      </g>
     </g>
     <g id="text_2">
      <!-- −1.5 -->
      <defs>
       <path d="M 12.40625 8.296875 
L 28.515625 8.296875 
L 28.515625 63.921875 
L 10.984375 60.40625 
L 10.984375 69.390625 
L 28.421875 72.90625 
L 38.28125 72.90625 
L 38.28125 8.296875 
L 54.390625 8.296875 
L 54.390625 0 
L 12.40625 0 
z
" id="DejaVuSans-49"/>
       <path d="M 10.796875 72.90625 
L 49.515625 72.90625 
L 49.515625 64.59375 
L 19.828125 64.59375 
L 19.828125 46.734375 
Q 21.96875 47.46875 24.109375 47.828125 
Q 26.265625 48.1875 28.421875 48.1875 
Q 40.625 48.1875 47.75 41.5 
Q 54.890625 34.8125 54.890625 23.390625 
Q 54.890625 11.625 47.5625 5.09375 
Q 40.234375 -1.421875 26.90625 -1.421875 
Q 22.3125 -1.421875 17.546875 -0.640625 
Q 12.796875 0.140625 7.71875 1.703125 
L 7.71875 11.625 
Q 12.109375 9.234375 16.796875 8.0625 
Q 21.484375 6.890625 26.703125 6.890625 
Q 35.15625 6.890625 40.078125 11.328125 
Q 45.015625 15.765625 45.015625 23.390625 
Q 45.015625 31 40.078125 35.4375 
Q 35.15625 39.890625 26.703125 39.890625 
Q 22.75 39.890625 18.8125 39.015625 
Q 14.890625 38.140625 10.796875 36.28125 
z
" id="DejaVuSans-53"/>
      </defs>
      <g transform="translate(91.866207 318.238437)scale(0.1 -0.1)">
       <use xlink:href="#DejaVuSans-8722"/>
       <use x="83.789062" xlink:href="#DejaVuSans-49"/>
       <use x="147.412109" xlink:href="#DejaVuSans-46"/>
       <use x="179.199219" xlink:href="#DejaVuSans-53"/>
      </g>
     </g>
    </g>
    <g id="xtick_3">
     <g id="line2d_3">
      <g>
       <use style="stroke:#000000;stroke-width:0.8;" x="151.030226" xlink:href="#m9f2649e4ef" y="303.64"/>
      </g>
     </g>
     <g id="text_3">
      <!-- −1.0 -->
      <g transform="translate(138.88882 318.238437)scale(0.1 -0.1)">
       <use xlink:href="#DejaVuSans-8722"/>
       <use x="83.789062" xlink:href="#DejaVuSans-49"/>
       <use x="147.412109" xlink:href="#DejaVuSans-46"/>
       <use x="179.199219" xlink:href="#DejaVuSans-48"/>
      </g>
     </g>
    </g>
    <g id="xtick_4">
     <g id="line2d_4">
      <g>
       <use style="stroke:#000000;stroke-width:0.8;" x="198.052839" xlink:href="#m9f2649e4ef" y="303.64"/>
      </g>
     </g>
     <g id="text_4">
      <!-- −0.5 -->
      <g transform="translate(185.911433 318.238437)scale(0.1 -0.1)">
       <use xlink:href="#DejaVuSans-8722"/>
       <use x="83.789062" xlink:href="#DejaVuSans-48"/>
       <use x="147.412109" xlink:href="#DejaVuSans-46"/>
       <use x="179.199219" xlink:href="#DejaVuSans-53"/>
      </g>
     </g>
    </g>
    <g id="xtick_5">
     <g id="line2d_5">
      <g>
       <use style="stroke:#000000;stroke-width:0.8;" x="245.075452" xlink:href="#m9f2649e4ef" y="303.64"/>
      </g>
     </g>
     <g id="text_5">
      <!-- 0.0 -->
      <g transform="translate(237.12389 318.238437)scale(0.1 -0.1)">
       <use xlink:href="#DejaVuSans-48"/>
       <use x="63.623047" xlink:href="#DejaVuSans-46"/>
       <use x="95.410156" xlink:href="#DejaVuSans-48"/>
      </g>
     </g>
    </g>
    <g id="xtick_6">
     <g id="line2d_6">
      <g>
       <use style="stroke:#000000;stroke-width:0.8;" x="292.098065" xlink:href="#m9f2649e4ef" y="303.64"/>
      </g>
     </g>
     <g id="text_6">
      <!-- 0.5 -->
      <g transform="translate(284.146503 318.238437)scale(0.1 -0.1)">
       <use xlink:href="#DejaVuSans-48"/>
       <use x="63.623047" xlink:href="#DejaVuSans-46"/>
       <use x="95.410156" xlink:href="#DejaVuSans-53"/>
      </g>
     </g>
    </g>
    <g id="xtick_7">
     <g id="line2d_7">
      <g>
       <use style="stroke:#000000;stroke-width:0.8;" x="339.120678" xlink:href="#m9f2649e4ef" y="303.64"/>
      </g>
     </g>
     <g id="text_7">
      <!-- 1.0 -->
      <g transform="translate(331.169116 318.238437)scale(0.1 -0.1)">
       <use xlink:href="#DejaVuSans-49"/>
       <use x="63.623047" xlink:href="#DejaVuSans-46"/>
       <use x="95.410156" xlink:href="#DejaVuSans-48"/>
      </g>
     </g>
    </g>
    <g id="xtick_8">
     <g id="line2d_8">
      <g>
       <use style="stroke:#000000;stroke-width:0.8;" x="386.143291" xlink:href="#m9f2649e4ef" y="303.64"/>
      </g>
     </g>
     <g id="text_8">
      <!-- 1.5 -->
      <g transform="translate(378.191729 318.238437)scale(0.1 -0.1)">
       <use xlink:href="#DejaVuSans-49"/>
       <use x="63.623047" xlink:href="#DejaVuSans-46"/>
       <use x="95.410156" xlink:href="#DejaVuSans-53"/>
      </g>
     </g>
    </g>
    <g id="xtick_9">
     <g id="line2d_9">
      <g>
       <use style="stroke:#000000;stroke-width:0.8;" x="433.165905" xlink:href="#m9f2649e4ef" y="303.64"/>
      </g>
     </g>
     <g id="text_9">
      <!-- 2.0 -->
      <g transform="translate(425.214342 318.238437)scale(0.1 -0.1)">
       <use xlink:href="#DejaVuSans-50"/>
       <use x="63.623047" xlink:href="#DejaVuSans-46"/>
       <use x="95.410156" xlink:href="#DejaVuSans-48"/>
      </g>
     </g>
    </g>
    <g id="text_10">
     <!-- Position -->
     <defs>
      <path d="M 19.671875 64.796875 
L 19.671875 37.40625 
L 32.078125 37.40625 
Q 38.96875 37.40625 42.71875 40.96875 
Q 46.484375 44.53125 46.484375 51.125 
Q 46.484375 57.671875 42.71875 61.234375 
Q 38.96875 64.796875 32.078125 64.796875 
z
M 9.8125 72.90625 
L 32.078125 72.90625 
Q 44.34375 72.90625 50.609375 67.359375 
Q 56.890625 61.8125 56.890625 51.125 
Q 56.890625 40.328125 50.609375 34.8125 
Q 44.34375 29.296875 32.078125 29.296875 
L 19.671875 29.296875 
L 19.671875 0 
L 9.8125 0 
z
" id="DejaVuSans-80"/>
      <path d="M 30.609375 48.390625 
Q 23.390625 48.390625 19.1875 42.75 
Q 14.984375 37.109375 14.984375 27.296875 
Q 14.984375 17.484375 19.15625 11.84375 
Q 23.34375 6.203125 30.609375 6.203125 
Q 37.796875 6.203125 41.984375 11.859375 
Q 46.1875 17.53125 46.1875 27.296875 
Q 46.1875 37.015625 41.984375 42.703125 
Q 37.796875 48.390625 30.609375 48.390625 
z
M 30.609375 56 
Q 42.328125 56 49.015625 48.375 
Q 55.71875 40.765625 55.71875 27.296875 
Q 55.71875 13.875 49.015625 6.21875 
Q 42.328125 -1.421875 30.609375 -1.421875 
Q 18.84375 -1.421875 12.171875 6.21875 
Q 5.515625 13.875 5.515625 27.296875 
Q 5.515625 40.765625 12.171875 48.375 
Q 18.84375 56 30.609375 56 
z
" id="DejaVuSans-111"/>
      <path d="M 44.28125 53.078125 
L 44.28125 44.578125 
Q 40.484375 46.53125 36.375 47.5 
Q 32.28125 48.484375 27.875 48.484375 
Q 21.1875 48.484375 17.84375 46.4375 
Q 14.5 44.390625 14.5 40.28125 
Q 14.5 37.15625 16.890625 35.375 
Q 19.28125 33.59375 26.515625 31.984375 
L 29.59375 31.296875 
Q 39.15625 29.25 43.1875 25.515625 
Q 47.21875 21.78125 47.21875 15.09375 
Q 47.21875 7.46875 41.1875 3.015625 
Q 35.15625 -1.421875 24.609375 -1.421875 
Q 20.21875 -1.421875 15.453125 -0.5625 
Q 10.6875 0.296875 5.421875 2 
L 5.421875 11.28125 
Q 10.40625 8.6875 15.234375 7.390625 
Q 20.0625 6.109375 24.8125 6.109375 
Q 31.15625 6.109375 34.5625 8.28125 
Q 37.984375 10.453125 37.984375 14.40625 
Q 37.984375 18.0625 35.515625 20.015625 
Q 33.0625 21.96875 24.703125 23.78125 
L 21.578125 24.515625 
Q 13.234375 26.265625 9.515625 29.90625 
Q 5.8125 33.546875 5.8125 39.890625 
Q 5.8125 47.609375 11.28125 51.796875 
Q 16.75 56 26.8125 56 
Q 31.78125 56 36.171875 55.265625 
Q 40.578125 54.546875 44.28125 53.078125 
z
" id="DejaVuSans-115"/>
      <path d="M 9.421875 54.6875 
L 18.40625 54.6875 
L 18.40625 0 
L 9.421875 0 
z
M 9.421875 75.984375 
L 18.40625 75.984375 
L 18.40625 64.59375 
L 9.421875 64.59375 
z
" id="DejaVuSans-105"/>
      <path d="M 18.3125 70.21875 
L 18.3125 54.6875 
L 36.8125 54.6875 
L 36.8125 47.703125 
L 18.3125 47.703125 
L 18.3125 18.015625 
Q 18.3125 11.328125 20.140625 9.421875 
Q 21.96875 7.515625 27.59375 7.515625 
L 36.8125 7.515625 
L 36.8125 0 
L 27.59375 0 
Q 17.1875 0 13.234375 3.875 
Q 9.28125 7.765625 9.28125 18.015625 
L 9.28125 47.703125 
L 2.6875 47.703125 
L 2.6875 54.6875 
L 9.28125 54.6875 
L 9.28125 70.21875 
z
" id="DejaVuSans-116"/>
      <path d="M 54.890625 33.015625 
L 54.890625 0 
L 45.90625 0 
L 45.90625 32.71875 
Q 45.90625 40.484375 42.875 44.328125 
Q 39.84375 48.1875 33.796875 48.1875 
Q 26.515625 48.1875 22.3125 43.546875 
Q 18.109375 38.921875 18.109375 30.90625 
L 18.109375 0 
L 9.078125 0 
L 9.078125 54.6875 
L 18.109375 54.6875 
L 18.109375 46.1875 
Q 21.34375 51.125 25.703125 53.5625 
Q 30.078125 56 35.796875 56 
Q 45.21875 56 50.046875 50.171875 
Q 54.890625 44.34375 54.890625 33.015625 
z
" id="DejaVuSans-110"/>
     </defs>
     <g transform="translate(224.492031 331.916562)scale(0.1 -0.1)">
      <use xlink:href="#DejaVuSans-80"/>
      <use x="60.255859" xlink:href="#DejaVuSans-111"/>
      <use x="121.4375" xlink:href="#DejaVuSans-115"/>
      <use x="173.537109" xlink:href="#DejaVuSans-105"/>
      <use x="201.320312" xlink:href="#DejaVuSans-116"/>
      <use x="240.529297" xlink:href="#DejaVuSans-105"/>
      <use x="268.3125" xlink:href="#DejaVuSans-111"/>
      <use x="329.494141" xlink:href="#DejaVuSans-110"/>
     </g>
    </g>
   </g>
   <g id="matplotlib.axis_2">
    <g id="ytick_1">
     <g id="line2d_10">
      <defs>
       <path d="M 0 0 
L -3.5 0 
" id="m1949d3c0b4" style="stroke:#000000;stroke-width:0.8;"/>
      </defs>
      <g>
       <use style="stroke:#000000;stroke-width:0.8;" x="38.27" xlink:href="#m1949d3c0b4" y="290.329091"/>
      </g>
     </g>
     <g id="text_11">
      <!-- 0 -->
      <g transform="translate(24.9075 294.12831)scale(0.1 -0.1)">
       <use xlink:href="#DejaVuSans-48"/>
      </g>
     </g>
    </g>
    <g id="ytick_2">
     <g id="line2d_11">
      <g>
       <use style="stroke:#000000;stroke-width:0.8;" x="38.27" xlink:href="#m1949d3c0b4" y="257.051818"/>
      </g>
     </g>
     <g id="text_12">
      <!-- 1 -->
      <g transform="translate(24.9075 260.851037)scale(0.1 -0.1)">
       <use xlink:href="#DejaVuSans-49"/>
      </g>
     </g>
    </g>
    <g id="ytick_3">
     <g id="line2d_12">
      <g>
       <use style="stroke:#000000;stroke-width:0.8;" x="38.27" xlink:href="#m1949d3c0b4" y="223.774545"/>
      </g>
     </g>
     <g id="text_13">
      <!-- 2 -->
      <g transform="translate(24.9075 227.573764)scale(0.1 -0.1)">
       <use xlink:href="#DejaVuSans-50"/>
      </g>
     </g>
    </g>
    <g id="ytick_4">
     <g id="line2d_13">
      <g>
       <use style="stroke:#000000;stroke-width:0.8;" x="38.27" xlink:href="#m1949d3c0b4" y="190.497273"/>
      </g>
     </g>
     <g id="text_14">
      <!-- 3 -->
      <defs>
       <path d="M 40.578125 39.3125 
Q 47.65625 37.796875 51.625 33 
Q 55.609375 28.21875 55.609375 21.1875 
Q 55.609375 10.40625 48.1875 4.484375 
Q 40.765625 -1.421875 27.09375 -1.421875 
Q 22.515625 -1.421875 17.65625 -0.515625 
Q 12.796875 0.390625 7.625 2.203125 
L 7.625 11.71875 
Q 11.71875 9.328125 16.59375 8.109375 
Q 21.484375 6.890625 26.8125 6.890625 
Q 36.078125 6.890625 40.9375 10.546875 
Q 45.796875 14.203125 45.796875 21.1875 
Q 45.796875 27.640625 41.28125 31.265625 
Q 36.765625 34.90625 28.71875 34.90625 
L 20.21875 34.90625 
L 20.21875 43.015625 
L 29.109375 43.015625 
Q 36.375 43.015625 40.234375 45.921875 
Q 44.09375 48.828125 44.09375 54.296875 
Q 44.09375 59.90625 40.109375 62.90625 
Q 36.140625 65.921875 28.71875 65.921875 
Q 24.65625 65.921875 20.015625 65.03125 
Q 15.375 64.15625 9.8125 62.3125 
L 9.8125 71.09375 
Q 15.4375 72.65625 20.34375 73.4375 
Q 25.25 74.21875 29.59375 74.21875 
Q 40.828125 74.21875 47.359375 69.109375 
Q 53.90625 64.015625 53.90625 55.328125 
Q 53.90625 49.265625 50.4375 45.09375 
Q 46.96875 40.921875 40.578125 39.3125 
z
" id="DejaVuSans-51"/>
      </defs>
      <g transform="translate(24.9075 194.296491)scale(0.1 -0.1)">
       <use xlink:href="#DejaVuSans-51"/>
      </g>
     </g>
    </g>
    <g id="ytick_5">
     <g id="line2d_14">
      <g>
       <use style="stroke:#000000;stroke-width:0.8;" x="38.27" xlink:href="#m1949d3c0b4" y="157.22"/>
      </g>
     </g>
     <g id="text_15">
      <!-- 4 -->
      <defs>
       <path d="M 37.796875 64.3125 
L 12.890625 25.390625 
L 37.796875 25.390625 
z
M 35.203125 72.90625 
L 47.609375 72.90625 
L 47.609375 25.390625 
L 58.015625 25.390625 
L 58.015625 17.1875 
L 47.609375 17.1875 
L 47.609375 0 
L 37.796875 0 
L 37.796875 17.1875 
L 4.890625 17.1875 
L 4.890625 26.703125 
z
" id="DejaVuSans-52"/>
      </defs>
      <g transform="translate(24.9075 161.019219)scale(0.1 -0.1)">
       <use xlink:href="#DejaVuSans-52"/>
      </g>
     </g>
    </g>
    <g id="ytick_6">
     <g id="line2d_15">
      <g>
       <use style="stroke:#000000;stroke-width:0.8;" x="38.27" xlink:href="#m1949d3c0b4" y="123.942727"/>
      </g>
     </g>
     <g id="text_16">
      <!-- 5 -->
      <g transform="translate(24.9075 127.741946)scale(0.1 -0.1)">
       <use xlink:href="#DejaVuSans-53"/>
      </g>
     </g>
    </g>
    <g id="ytick_7">
     <g id="line2d_16">
      <g>
       <use style="stroke:#000000;stroke-width:0.8;" x="38.27" xlink:href="#m1949d3c0b4" y="90.665455"/>
      </g>
     </g>
     <g id="text_17">
      <!-- 6 -->
      <defs>
       <path d="M 33.015625 40.375 
Q 26.375 40.375 22.484375 35.828125 
Q 18.609375 31.296875 18.609375 23.390625 
Q 18.609375 15.53125 22.484375 10.953125 
Q 26.375 6.390625 33.015625 6.390625 
Q 39.65625 6.390625 43.53125 10.953125 
Q 47.40625 15.53125 47.40625 23.390625 
Q 47.40625 31.296875 43.53125 35.828125 
Q 39.65625 40.375 33.015625 40.375 
z
M 52.59375 71.296875 
L 52.59375 62.3125 
Q 48.875 64.0625 45.09375 64.984375 
Q 41.3125 65.921875 37.59375 65.921875 
Q 27.828125 65.921875 22.671875 59.328125 
Q 17.53125 52.734375 16.796875 39.40625 
Q 19.671875 43.65625 24.015625 45.921875 
Q 28.375 48.1875 33.59375 48.1875 
Q 44.578125 48.1875 50.953125 41.515625 
Q 57.328125 34.859375 57.328125 23.390625 
Q 57.328125 12.15625 50.6875 5.359375 
Q 44.046875 -1.421875 33.015625 -1.421875 
Q 20.359375 -1.421875 13.671875 8.265625 
Q 6.984375 17.96875 6.984375 36.375 
Q 6.984375 53.65625 15.1875 63.9375 
Q 23.390625 74.21875 37.203125 74.21875 
Q 40.921875 74.21875 44.703125 73.484375 
Q 48.484375 72.75 52.59375 71.296875 
z
" id="DejaVuSans-54"/>
      </defs>
      <g transform="translate(24.9075 94.464673)scale(0.1 -0.1)">
       <use xlink:href="#DejaVuSans-54"/>
      </g>
     </g>
    </g>
    <g id="ytick_8">
     <g id="line2d_17">
      <g>
       <use style="stroke:#000000;stroke-width:0.8;" x="38.27" xlink:href="#m1949d3c0b4" y="57.388182"/>
      </g>
     </g>
     <g id="text_18">
      <!-- 7 -->
      <defs>
       <path d="M 8.203125 72.90625 
L 55.078125 72.90625 
L 55.078125 68.703125 
L 28.609375 0 
L 18.3125 0 
L 43.21875 64.59375 
L 8.203125 64.59375 
z
" id="DejaVuSans-55"/>
      </defs>
      <g transform="translate(24.9075 61.187401)scale(0.1 -0.1)">
       <use xlink:href="#DejaVuSans-55"/>
      </g>
     </g>
    </g>
    <g id="ytick_9">
     <g id="line2d_18">
      <g>
       <use style="stroke:#000000;stroke-width:0.8;" x="38.27" xlink:href="#m1949d3c0b4" y="24.110909"/>
      </g>
     </g>
     <g id="text_19">
      <!-- 8 -->
      <defs>
       <path d="M 31.78125 34.625 
Q 24.75 34.625 20.71875 30.859375 
Q 16.703125 27.09375 16.703125 20.515625 
Q 16.703125 13.921875 20.71875 10.15625 
Q 24.75 6.390625 31.78125 6.390625 
Q 38.8125 6.390625 42.859375 10.171875 
Q 46.921875 13.96875 46.921875 20.515625 
Q 46.921875 27.09375 42.890625 30.859375 
Q 38.875 34.625 31.78125 34.625 
z
M 21.921875 38.8125 
Q 15.578125 40.375 12.03125 44.71875 
Q 8.5 49.078125 8.5 55.328125 
Q 8.5 64.0625 14.71875 69.140625 
Q 20.953125 74.21875 31.78125 74.21875 
Q 42.671875 74.21875 48.875 69.140625 
Q 55.078125 64.0625 55.078125 55.328125 
Q 55.078125 49.078125 51.53125 44.71875 
Q 48 40.375 41.703125 38.8125 
Q 48.828125 37.15625 52.796875 32.3125 
Q 56.78125 27.484375 56.78125 20.515625 
Q 56.78125 9.90625 50.3125 4.234375 
Q 43.84375 -1.421875 31.78125 -1.421875 
Q 19.734375 -1.421875 13.25 4.234375 
Q 6.78125 9.90625 6.78125 20.515625 
Q 6.78125 27.484375 10.78125 32.3125 
Q 14.796875 37.15625 21.921875 38.8125 
z
M 18.3125 54.390625 
Q 18.3125 48.734375 21.84375 45.5625 
Q 25.390625 42.390625 31.78125 42.390625 
Q 38.140625 42.390625 41.71875 45.5625 
Q 45.3125 48.734375 45.3125 54.390625 
Q 45.3125 60.0625 41.71875 63.234375 
Q 38.140625 66.40625 31.78125 66.40625 
Q 25.390625 66.40625 21.84375 63.234375 
Q 18.3125 60.0625 18.3125 54.390625 
z
" id="DejaVuSans-56"/>
      </defs>
      <g transform="translate(24.9075 27.910128)scale(0.1 -0.1)">
       <use xlink:href="#DejaVuSans-56"/>
      </g>
     </g>
    </g>
    <g id="text_20">
     <!-- Energy -->
     <defs>
      <path d="M 9.8125 72.90625 
L 55.90625 72.90625 
L 55.90625 64.59375 
L 19.671875 64.59375 
L 19.671875 43.015625 
L 54.390625 43.015625 
L 54.390625 34.71875 
L 19.671875 34.71875 
L 19.671875 8.296875 
L 56.78125 8.296875 
L 56.78125 0 
L 9.8125 0 
z
" id="DejaVuSans-69"/>
      <path d="M 56.203125 29.59375 
L 56.203125 25.203125 
L 14.890625 25.203125 
Q 15.484375 15.921875 20.484375 11.0625 
Q 25.484375 6.203125 34.421875 6.203125 
Q 39.59375 6.203125 44.453125 7.46875 
Q 49.3125 8.734375 54.109375 11.28125 
L 54.109375 2.78125 
Q 49.265625 0.734375 44.1875 -0.34375 
Q 39.109375 -1.421875 33.890625 -1.421875 
Q 20.796875 -1.421875 13.15625 6.1875 
Q 5.515625 13.8125 5.515625 26.8125 
Q 5.515625 40.234375 12.765625 48.109375 
Q 20.015625 56 32.328125 56 
Q 43.359375 56 49.78125 48.890625 
Q 56.203125 41.796875 56.203125 29.59375 
z
M 47.21875 32.234375 
Q 47.125 39.59375 43.09375 43.984375 
Q 39.0625 48.390625 32.421875 48.390625 
Q 24.90625 48.390625 20.390625 44.140625 
Q 15.875 39.890625 15.1875 32.171875 
z
" id="DejaVuSans-101"/>
      <path d="M 41.109375 46.296875 
Q 39.59375 47.171875 37.8125 47.578125 
Q 36.03125 48 33.890625 48 
Q 26.265625 48 22.1875 43.046875 
Q 18.109375 38.09375 18.109375 28.8125 
L 18.109375 0 
L 9.078125 0 
L 9.078125 54.6875 
L 18.109375 54.6875 
L 18.109375 46.1875 
Q 20.953125 51.171875 25.484375 53.578125 
Q 30.03125 56 36.53125 56 
Q 37.453125 56 38.578125 55.875 
Q 39.703125 55.765625 41.0625 55.515625 
z
" id="DejaVuSans-114"/>
      <path d="M 45.40625 27.984375 
Q 45.40625 37.75 41.375 43.109375 
Q 37.359375 48.484375 30.078125 48.484375 
Q 22.859375 48.484375 18.828125 43.109375 
Q 14.796875 37.75 14.796875 27.984375 
Q 14.796875 18.265625 18.828125 12.890625 
Q 22.859375 7.515625 30.078125 7.515625 
Q 37.359375 7.515625 41.375 12.890625 
Q 45.40625 18.265625 45.40625 27.984375 
z
M 54.390625 6.78125 
Q 54.390625 -7.171875 48.1875 -13.984375 
Q 42 -20.796875 29.203125 -20.796875 
Q 24.46875 -20.796875 20.265625 -20.09375 
Q 16.0625 -19.390625 12.109375 -17.921875 
L 12.109375 -9.1875 
Q 16.0625 -11.328125 19.921875 -12.34375 
Q 23.78125 -13.375 27.78125 -13.375 
Q 36.625 -13.375 41.015625 -8.765625 
Q 45.40625 -4.15625 45.40625 5.171875 
L 45.40625 9.625 
Q 42.625 4.78125 38.28125 2.390625 
Q 33.9375 0 27.875 0 
Q 17.828125 0 11.671875 7.65625 
Q 5.515625 15.328125 5.515625 27.984375 
Q 5.515625 40.671875 11.671875 48.328125 
Q 17.828125 56 27.875 56 
Q 33.9375 56 38.28125 53.609375 
Q 42.625 51.21875 45.40625 46.390625 
L 45.40625 54.6875 
L 54.390625 54.6875 
z
" id="DejaVuSans-103"/>
      <path d="M 32.171875 -5.078125 
Q 28.375 -14.84375 24.75 -17.8125 
Q 21.140625 -20.796875 15.09375 -20.796875 
L 7.90625 -20.796875 
L 7.90625 -13.28125 
L 13.1875 -13.28125 
Q 16.890625 -13.28125 18.9375 -11.515625 
Q 21 -9.765625 23.484375 -3.21875 
L 25.09375 0.875 
L 2.984375 54.6875 
L 12.5 54.6875 
L 29.59375 11.921875 
L 46.6875 54.6875 
L 56.203125 54.6875 
z
" id="DejaVuSans-121"/>
     </defs>
     <g transform="translate(18.827813 174.812969)rotate(-90)scale(0.1 -0.1)">
      <use xlink:href="#DejaVuSans-69"/>
      <use x="63.183594" xlink:href="#DejaVuSans-110"/>
      <use x="126.5625" xlink:href="#DejaVuSans-101"/>
      <use x="188.085938" xlink:href="#DejaVuSans-114"/>
      <use x="229.183594" xlink:href="#DejaVuSans-103"/>
      <use x="292.660156" xlink:href="#DejaVuSans-121"/>
     </g>
    </g>
   </g>
   <g id="line2d_19">
    <path clip-path="url(#pd8ae0c392d)" d="M 56.985 24.110909 
L 64.508618 44.982415 
L 72.032236 65.002022 
L 77.67495 79.457669 
L 83.317663 93.434124 
L 88.960377 106.931385 
L 94.60309 119.949455 
L 100.245804 132.488331 
L 105.888518 144.548015 
L 111.531231 156.128505 
L 117.173945 167.229804 
L 122.816658 177.851909 
L 128.459372 187.994822 
L 134.102085 197.658542 
L 139.744799 206.843069 
L 145.387513 215.548404 
L 151.030226 223.774545 
L 156.67294 231.521495 
L 162.315653 238.789251 
L 167.958367 245.577815 
L 173.60108 251.887185 
L 179.243794 257.717364 
L 183.005603 261.337931 
L 186.767412 264.745524 
L 190.529221 267.940142 
L 194.29103 270.921785 
L 198.052839 273.690455 
L 201.814648 276.246149 
L 205.576457 278.588869 
L 209.338266 280.718615 
L 213.100075 282.635385 
L 216.861884 284.339182 
L 220.623693 285.830004 
L 224.385503 287.107851 
L 228.147312 288.172724 
L 231.909121 289.024622 
L 235.67093 289.663545 
L 239.432739 290.089495 
L 243.194548 290.302469 
L 246.956357 290.302469 
L 250.718166 290.089495 
L 254.479975 289.663545 
L 258.241784 289.024622 
L 262.003593 288.172724 
L 265.765402 287.107851 
L 269.527211 285.830004 
L 273.28902 284.339182 
L 277.050829 282.635385 
L 280.812638 280.718615 
L 284.574447 278.588869 
L 288.336256 276.246149 
L 292.098065 273.690455 
L 295.859874 270.921785 
L 299.621683 267.940142 
L 303.383492 264.745524 
L 307.145302 261.337931 
L 310.907111 257.717364 
L 314.66892 253.883822 
L 320.311633 247.734182 
L 325.954347 241.105349 
L 331.59706 233.997324 
L 337.239774 226.410105 
L 342.882487 218.343695 
L 348.525201 209.798091 
L 354.167915 200.773295 
L 359.810628 191.269305 
L 365.453342 181.286124 
L 371.096055 170.823749 
L 376.738769 159.882182 
L 382.381482 148.461422 
L 388.024196 136.561469 
L 393.66691 124.182324 
L 399.309623 111.323985 
L 404.952337 97.986455 
L 410.59505 84.169731 
L 416.237764 69.873815 
L 421.880477 55.098705 
L 427.523191 39.844404 
L 431.285 29.408651 
L 431.285 29.408651 
" style="fill:none;stroke:#1f77b4;stroke-linecap:square;stroke-width:1.5;"/>
   </g>
   <g id="line2d_20">
    <path clip-path="url(#pd8ae0c392d)" d="M 56.985 266.799433 
L 113.412136 266.700962 
L 128.459372 266.473305 
L 139.744799 266.072544 
L 147.268417 265.614285 
L 154.792035 264.935953 
L 160.434749 264.244311 
L 166.077462 263.366615 
L 171.720176 262.280416 
L 177.362889 260.970457 
L 183.005603 259.432337 
L 188.648317 257.676039 
L 196.171935 255.044697 
L 205.576457 251.464779 
L 214.98098 247.894764 
L 220.623693 245.939428 
L 226.266407 244.245831 
L 230.028216 243.308317 
L 233.790025 242.552278 
L 237.551834 241.997398 
L 241.313643 241.658393 
L 245.075452 241.544364 
L 248.837261 241.658393 
L 252.59907 241.997398 
L 256.360879 242.552278 
L 260.122688 243.308317 
L 263.884497 244.245831 
L 269.527211 245.939428 
L 275.169925 247.894764 
L 284.574447 251.464779 
L 295.859874 255.728793 
L 303.383492 258.284412 
L 309.026206 259.97011 
L 314.66892 261.432508 
L 320.311633 262.666779 
L 325.954347 263.681352 
L 331.59706 264.494283 
L 339.120678 265.306582 
L 346.644296 265.867057 
L 356.048819 266.307527 
L 367.334246 266.587629 
L 384.262387 266.748335 
L 421.880477 266.798804 
L 431.285 266.799417 
L 431.285 266.799417 
" style="fill:none;stroke:#ff7f0e;stroke-linecap:square;stroke-width:1.5;"/>
   </g>
   <g id="line2d_21">
    <path clip-path="url(#pd8ae0c392d)" d="M 56.985 219.695407 
L 85.198568 219.595926 
L 98.364899 219.358367 
L 107.769422 218.982744 
L 115.29304 218.470932 
L 120.935754 217.914432 
L 126.578467 217.171872 
L 132.221181 216.211436 
L 137.863894 215.009372 
L 143.506608 213.556843 
L 149.149322 211.867457 
L 156.67294 209.325961 
L 169.839271 204.718883 
L 175.481985 203.048178 
L 179.243794 202.160223 
L 183.005603 201.511103 
L 186.767412 201.145273 
L 190.529221 201.098699 
L 194.29103 201.395599 
L 198.052839 202.045544 
L 201.814648 203.041224 
L 205.576457 204.357107 
L 209.338266 205.949232 
L 213.100075 207.75624 
L 220.623693 211.697735 
L 226.266407 214.578573 
L 230.028216 216.284415 
L 233.790025 217.714932 
L 237.551834 218.79504 
L 241.313643 219.467237 
L 243.194548 219.638171 
L 245.075452 219.695407 
L 246.956357 219.638171 
L 250.718166 219.184921 
L 254.479975 218.302844 
L 258.241784 217.039141 
L 262.003593 215.460657 
L 265.765402 213.649493 
L 280.812638 205.949232 
L 284.574447 204.357107 
L 288.336256 203.041224 
L 292.098065 202.045544 
L 295.859874 201.395599 
L 299.621683 201.098699 
L 303.383492 201.145273 
L 307.145302 201.511103 
L 310.907111 202.160223 
L 314.66892 203.048178 
L 318.430729 204.125395 
L 324.073442 205.983688 
L 341.001583 211.867457 
L 346.644296 213.556843 
L 352.28701 215.009372 
L 357.929724 216.211436 
L 363.572437 217.171872 
L 369.215151 217.914432 
L 376.738769 218.621034 
L 384.262387 219.077741 
L 393.66691 219.408345 
L 406.833241 219.613748 
L 429.404095 219.694362 
L 431.285 219.695148 
L 431.285 219.695148 
" style="fill:none;stroke:#2ca02c;stroke-linecap:square;stroke-width:1.5;"/>
   </g>
   <g id="line2d_22">
    <path clip-path="url(#pd8ae0c392d)" d="M 56.985 172.781983 
L 70.151332 172.654203 
L 79.555854 172.361648 
L 87.079472 171.933814 
L 94.60309 171.252839 
L 100.245804 170.524214 
L 105.888518 169.570785 
L 111.531231 168.368701 
L 117.173945 166.913428 
L 122.816658 165.229979 
L 132.221181 162.111264 
L 139.744799 159.675079 
L 143.506608 158.619292 
L 147.268417 157.751877 
L 151.030226 157.13316 
L 154.792035 156.818264 
L 158.553844 156.852039 
L 162.315653 157.263894 
L 166.077462 158.063041 
L 169.839271 159.234712 
L 173.60108 160.737887 
L 177.362889 162.505035 
L 184.886508 166.443734 
L 190.529221 169.282502 
L 194.29103 170.882893 
L 198.052839 172.114514 
L 199.933744 172.562319 
L 201.814648 172.885984 
L 203.695553 173.079199 
L 205.576457 173.138141 
L 207.457362 173.061636 
L 209.338266 172.851251 
L 211.219171 172.511334 
L 214.98098 171.473972 
L 218.742789 170.037226 
L 222.504598 168.32463 
L 231.909121 163.845859 
L 235.67093 162.394726 
L 239.432739 161.347209 
L 241.313643 161.006223 
L 243.194548 160.798452 
L 245.075452 160.728662 
L 246.956357 160.798452 
L 248.837261 161.006223 
L 250.718166 161.347209 
L 252.59907 161.813599 
L 256.360879 163.077326 
L 260.122688 164.682884 
L 273.28902 170.798542 
L 277.050829 172.048988 
L 278.931734 172.511334 
L 280.812638 172.851251 
L 282.693543 173.061636 
L 284.574447 173.138141 
L 286.455352 173.079199 
L 288.336256 172.885984 
L 290.217161 172.562319 
L 292.098065 172.114514 
L 295.859874 170.882893 
L 299.621683 169.282502 
L 303.383492 167.427471 
L 314.66892 161.59368 
L 318.430729 159.948473 
L 322.192538 158.604246 
L 325.954347 157.615382 
L 329.716156 157.009607 
L 333.477965 156.789309 
L 337.239774 156.934629 
L 341.001583 157.407806 
L 344.763392 158.158203 
L 348.525201 159.127482 
L 354.167915 160.858308 
L 371.096055 166.375352 
L 376.738769 167.911213 
L 382.381482 169.198437 
L 388.024196 170.232849 
L 393.66691 171.032965 
L 399.309623 171.630276 
L 406.833241 172.174244 
L 416.237764 172.562723 
L 427.523191 172.759305 
L 431.285 172.779441 
L 431.285 172.779441 
" style="fill:none;stroke:#d62728;stroke-linecap:square;stroke-width:1.5;"/>
   </g>
   <g id="line2d_23">
    <path clip-path="url(#pd8ae0c392d)" d="M 56.985 123.62547 
L 64.508618 123.478807 
L 70.151332 123.157681 
L 75.794045 122.618522 
L 81.436759 121.819281 
L 87.079472 120.72064 
L 92.722186 119.298893 
L 98.364899 117.561174 
L 104.007613 115.561181 
L 119.054849 110.005842 
L 122.816658 108.915464 
L 126.578467 108.099758 
L 130.340276 107.633815 
L 134.102085 107.579964 
L 135.98299 107.72159 
L 137.863894 107.979783 
L 139.744799 108.355262 
L 143.506608 109.450004 
L 147.268417 110.966173 
L 151.030226 112.825782 
L 156.67294 116.000294 
L 162.315653 119.180134 
L 166.077462 121.022793 
L 167.958367 121.799783 
L 169.839271 122.456554 
L 171.720176 122.97792 
L 173.60108 123.351554 
L 175.481985 123.568438 
L 177.362889 123.623239 
L 179.243794 123.514598 
L 181.124698 123.245315 
L 183.005603 122.822424 
L 184.886508 122.257142 
L 188.648317 120.764 
L 192.410126 118.929398 
L 199.933744 115.082027 
L 203.695553 113.518731 
L 205.576457 112.916348 
L 207.457362 112.459969 
L 209.338266 112.164347 
L 211.219171 112.039478 
L 213.100075 112.090219 
L 214.98098 112.316052 
L 216.861884 112.711023 
L 218.742789 113.263862 
L 220.623693 113.958267 
L 224.385503 115.684333 
L 235.67093 121.48633 
L 237.551834 122.222794 
L 239.432739 122.821487 
L 241.313643 123.263325 
L 243.194548 123.534205 
L 245.075452 123.62547 
L 246.956357 123.534205 
L 248.837261 123.263325 
L 250.718166 122.821487 
L 252.59907 122.222794 
L 256.360879 120.635525 
L 260.122688 118.70156 
L 265.765402 115.684333 
L 269.527211 113.958267 
L 271.408116 113.263862 
L 273.28902 112.711023 
L 275.169925 112.316052 
L 277.050829 112.090219 
L 278.931734 112.039478 
L 280.812638 112.164347 
L 282.693543 112.459969 
L 284.574447 112.916348 
L 286.455352 113.518731 
L 290.217161 115.082027 
L 293.97897 116.959655 
L 299.621683 119.877261 
L 303.383492 121.564693 
L 305.264397 122.257142 
L 307.145302 122.822424 
L 309.026206 123.245315 
L 310.907111 123.514598 
L 312.788015 123.623239 
L 314.66892 123.568438 
L 316.549824 123.351554 
L 318.430729 122.97792 
L 320.311633 122.456554 
L 322.192538 121.799783 
L 325.954347 120.143124 
L 329.716156 118.154435 
L 341.001583 111.859396 
L 344.763392 110.159387 
L 348.525201 108.846583 
L 350.406106 108.355262 
L 352.28701 107.979783 
L 354.167915 107.72159 
L 356.048819 107.579964 
L 359.810628 107.633815 
L 363.572437 108.099758 
L 367.334246 108.915464 
L 371.096055 110.005842 
L 376.738769 111.981167 
L 391.786005 117.561174 
L 397.428719 119.298893 
L 403.071432 120.72064 
L 408.714146 121.819281 
L 414.356859 122.618522 
L 419.999573 123.157681 
L 425.642286 123.478807 
L 431.285 123.616496 
L 431.285 123.616496 
" style="fill:none;stroke:#9467bd;stroke-linecap:square;stroke-width:1.5;"/>
   </g>
   <g id="line2d_24">
    <path clip-path="url(#pd8ae0c392d)" d="M 56.985 78.682186 
L 60.746809 78.589556 
L 64.508618 78.331064 
L 70.151332 77.684336 
L 75.794045 76.796071 
L 94.60309 73.486485 
L 98.364899 73.098161 
L 102.126709 72.924778 
L 105.888518 73.01522 
L 109.650327 73.407492 
L 113.412136 74.122896 
L 117.173945 75.160553 
L 120.935754 76.493068 
L 124.697563 78.064202 
L 137.863894 84.020202 
L 141.625704 85.340212 
L 145.387513 86.266201 
L 147.268417 86.552899 
L 149.149322 86.711756 
L 151.030226 86.738764 
L 152.911131 86.633242 
L 154.792035 86.398024 
L 156.67294 86.039543 
L 160.434749 84.996285 
L 164.196558 83.623156 
L 173.60108 79.880761 
L 177.362889 78.760084 
L 179.243794 78.365592 
L 181.124698 78.101969 
L 183.005603 77.979393 
L 184.886508 78.003425 
L 186.767412 78.174695 
L 188.648317 78.488764 
L 190.529221 78.936164 
L 194.29103 80.169441 
L 198.052839 81.711174 
L 203.695553 84.133515 
L 207.457362 85.489197 
L 209.338266 86.011844 
L 211.219171 86.404013 
L 213.100075 86.651139 
L 214.98098 86.743989 
L 216.861884 86.67908 
L 218.742789 86.458874 
L 220.623693 86.091747 
L 224.385503 84.977979 
L 228.147312 83.507397 
L 235.67093 80.418822 
L 239.432739 79.277668 
L 241.313643 78.894869 
L 243.194548 78.659008 
L 245.075452 78.579344 
L 246.956357 78.659008 
L 248.837261 78.894869 
L 250.718166 79.277668 
L 254.479975 80.418822 
L 258.241784 81.905398 
L 263.884497 84.274141 
L 267.646307 85.591723 
L 269.527211 86.091747 
L 271.408116 86.458874 
L 273.28902 86.67908 
L 275.169925 86.743989 
L 277.050829 86.651139 
L 278.931734 86.404013 
L 280.812638 86.011844 
L 284.574447 84.855351 
L 288.336256 83.349912 
L 295.859874 80.169441 
L 299.621683 78.936164 
L 301.502588 78.488764 
L 303.383492 78.174695 
L 305.264397 78.003425 
L 307.145302 77.979393 
L 309.026206 78.101969 
L 310.907111 78.365592 
L 312.788015 78.760084 
L 316.549824 79.880761 
L 320.311633 81.310647 
L 327.835251 84.34159 
L 331.59706 85.567813 
L 335.358869 86.398024 
L 337.239774 86.633242 
L 339.120678 86.738764 
L 341.001583 86.711756 
L 342.882487 86.552899 
L 344.763392 86.266201 
L 348.525201 85.340212 
L 352.28701 84.020202 
L 356.048819 82.422056 
L 369.215151 76.493068 
L 372.97696 75.160553 
L 376.738769 74.122896 
L 380.500578 73.407492 
L 384.262387 73.01522 
L 388.024196 72.924778 
L 391.786005 73.098161 
L 395.547814 73.486485 
L 401.190528 74.352989 
L 419.999573 77.684336 
L 425.642286 78.331064 
L 429.404095 78.589556 
L 431.285 78.6583 
L 431.285 78.6583 
" style="fill:none;stroke:#8c564b;stroke-linecap:square;stroke-width:1.5;"/>
   </g>
   <g id="patch_3">
    <path d="M 38.27 303.64 
L 38.27 10.8 
" style="fill:none;stroke:#000000;stroke-linecap:square;stroke-linejoin:miter;stroke-width:0.8;"/>
   </g>
   <g id="patch_4">
    <path d="M 450 303.64 
L 450 10.8 
" style="fill:none;stroke:#000000;stroke-linecap:square;stroke-linejoin:miter;stroke-width:0.8;"/>
   </g>
   <g id="patch_5">
    <path d="M 38.27 303.64 
L 450 303.64 
" style="fill:none;stroke:#000000;stroke-linecap:square;stroke-linejoin:miter;stroke-width:0.8;"/>
   </g>
   <g id="patch_6">
    <path d="M 38.27 10.8 
L 450 10.8 
" style="fill:none;stroke:#000000;stroke-linecap:square;stroke-linejoin:miter;stroke-width:0.8;"/>
   </g>
  </g>
 </g>
 <defs>
  <clipPath id="pd8ae0c392d">
   <rect height="292.84" width="411.73" x="38.27" y="10.8"/>
  </clipPath>
 </defs>
</svg>
